<?xml version="1.0" standalone="no"?>
<!DOCTYPE svg PUBLIC "-//W3C//DTD SVG 20010904//EN"
 "http://www.w3.org/TR/2001/REC-SVG-20010904/DTD/svg10.dtd">
<svg version="1.0" xmlns="http://www.w3.org/2000/svg"
 width="388.000000pt" height="397.000000pt" viewBox="0 0 388.000000 397.000000"
 preserveAspectRatio="xMidYMid meet">

<g transform="translate(0.000000,397.000000) scale(0.100000,-0.100000)"
fill="#000000" stroke="none">
<path d="M1866 3879 c-54 -13 -132 -53 -255 -129 l-104 -65 -211 -6 c-116 -3
-226 -11 -244 -17 -97 -32 -175 -116 -262 -281 -78 -148 -106 -176 -259 -255
-156 -82 -241 -162 -273 -258 -6 -18 -14 -128 -17 -244 l-6 -211 -65 -104
c-87 -141 -119 -208 -132 -279 -21 -113 7 -197 132 -399 l65 -104 6 -211 c3
-116 11 -226 17 -244 32 -96 117 -176 273 -258 153 -79 181 -107 259 -256 50
-95 79 -138 130 -189 94 -96 141 -109 381 -109 206 0 198 2 350 -93 148 -93
195 -111 299 -111 103 0 158 21 304 114 145 91 139 90 345 90 240 0 287 13
381 109 51 51 80 94 130 189 78 149 106 177 260 257 88 45 130 74 181 125 95
94 101 116 108 376 l6 211 65 104 c125 202 153 286 132 399 -13 71 -45 138
-132 279 l-65 104 -6 211 c-7 260 -13 282 -108 376 -51 51 -93 80 -181 125
-154 80 -182 108 -260 256 -66 125 -133 211 -196 250 -63 39 -128 49 -317 49
-204 0 -199 -1 -343 90 -54 35 -125 74 -158 87 -67 27 -170 37 -230 22z m151
-231 c15 -7 77 -43 137 -80 174 -108 187 -112 416 -112 165 -1 200 -4 227 -18
33 -18 69 -73 144 -218 59 -114 145 -200 259 -259 145 -75 200 -111 218 -144
14 -27 17 -62 18 -227 0 -229 4 -242 112 -416 82 -133 92 -154 92 -204 0 -50
-10 -71 -92 -204 -109 -175 -112 -187 -113 -416 0 -164 -3 -200 -17 -226 -19
-35 -69 -69 -208 -140 -125 -65 -209 -146 -269 -264 -73 -142 -111 -199 -144
-218 -27 -14 -62 -17 -227 -18 -229 0 -242 -4 -416 -112 -133 -82 -154 -92
-204 -92 -50 0 -71 10 -204 92 -175 109 -187 112 -416 113 -165 0 -200 3 -227
17 -33 18 -69 73 -144 218 -59 114 -145 200 -259 259 -145 75 -200 111 -218
144 -14 27 -17 62 -18 227 0 229 -4 242 -112 416 -82 133 -92 154 -92 204 0
50 10 71 92 204 108 174 112 187 112 416 1 164 4 200 18 226 19 35 69 69 208
140 129 66 208 145 274 274 71 139 105 189 140 208 26 14 62 17 226 18 226 0
246 5 397 101 166 105 219 122 290 91z"/>
<path d="M1823 2340 c-68 -5 -92 -24 -92 -70 0 -43 24 -64 82 -70 l52 -5 5
-235 c3 -129 9 -242 13 -251 8 -17 49 -39 71 -39 7 0 25 9 39 21 l27 20 2 242
3 242 57 5 c63 6 87 25 88 71 0 29 -33 69 -58 69 -175 4 -237 4 -289 0z"/>
<path d="M697 2322 c-15 -16 -17 -53 -17 -313 0 -162 4 -299 8 -305 17 -27 56
-34 177 -34 69 0 135 4 145 10 28 15 40 61 25 97 -16 39 -29 43 -131 43 l-84
0 0 54 0 54 86 3 c76 4 88 7 105 28 25 30 24 62 -1 94 -19 24 -28 26 -103 29
l-82 3 0 55 0 55 91 3 c76 2 95 6 109 22 24 26 23 74 0 100 -17 18 -30 20
-165 20 -130 0 -149 -2 -163 -18z"/>
<path d="M1161 2314 c-12 -15 -21 -35 -21 -45 0 -10 29 -60 65 -111 100 -143
100 -118 1 -259 -94 -135 -105 -170 -64 -209 48 -45 87 -22 172 101 38 54 71
99 75 99 3 -1 31 -37 61 -82 74 -109 102 -138 134 -138 34 0 76 41 76 73 0 14
-36 76 -86 148 -48 68 -87 129 -87 135 0 6 32 56 71 112 55 77 72 109 72 135
0 43 -26 67 -74 67 -34 0 -40 -5 -84 -66 -26 -37 -56 -78 -67 -91 l-20 -25
-50 74 c-66 97 -79 108 -119 108 -25 0 -40 -7 -55 -26z"/>
<path d="M2284 2333 c-31 -22 -34 -56 -34 -333 l0 -281 25 -24 c13 -14 36 -25
50 -25 14 0 37 11 50 25 22 21 25 33 25 97 l1 73 37 -40 c20 -23 60 -67 88
-98 58 -63 84 -71 128 -36 46 36 37 74 -43 165 l-69 79 26 14 c140 71 152 261
24 355 -43 30 -46 31 -170 34 -70 1 -132 -1 -138 -5z m227 -159 c23 -21 25
-67 4 -84 -9 -7 -38 -15 -65 -18 l-50 -5 0 60 c0 33 3 63 8 67 12 13 82 -1
103 -20z"/>
<path d="M2972 2333 c-7 -3 -20 -19 -28 -36 -34 -64 -204 -531 -204 -558 0
-32 21 -56 56 -65 40 -10 71 13 95 72 l21 54 108 0 107 0 12 -41 c16 -51 52
-89 86 -89 31 0 75 41 75 69 0 34 -200 554 -223 579 -20 21 -71 29 -105 15z
m76 -330 l20 -53 -50 0 c-27 0 -48 4 -46 8 2 4 12 31 22 60 11 29 23 49 27 45
4 -5 16 -32 27 -60z"/>
</g>
</svg>
